<svg width="63" height="74" viewBox="0 0 63 74" fill="none" xmlns="http://www.w3.org/2000/svg">
<path d="M56 17.5H49C49 7.7 41.3 0 31.5 0C21.7 0 14 7.7 14 17.5H7C3.15 17.5 0 20.65 0 24.5V66.5C0 70.35 3.15 73.5 7 73.5H56C59.85 73.5 63 70.35 63 66.5V24.5C63 20.65 59.85 17.5 56 17.5ZM31.5 7C37.45 7 42 11.55 42 17.5H21C21 11.55 25.55 7 31.5 7ZM56 66.5H7V24.5H56V66.5ZM31.5 38.5C25.55 38.5 21 33.95 21 28H14C14 37.8 21.7 45.5 31.5 45.5C41.3 45.5 49 37.8 49 28H42C42 33.95 37.45 38.5 31.5 38.5Z" fill="#B3B3B3"/>
</svg>
