<svg width="319" height="78" viewBox="0 0 319 78" fill="none" xmlns="http://www.w3.org/2000/svg">
<path d="M28.4423 36.5C30.0623 34.22 31.7123 31.94 33.3923 29.66C35.0723 27.38 36.6923 25.07 38.2523 22.73C40.1123 20.09 41.9123 17.42 43.6523 14.72C45.3923 12.02 47.1623 9.32 48.9623 6.62C49.2623 6.14 49.6223 5.62999 50.0423 5.08999C50.5223 4.55 51.0023 4.19 51.4823 4.01C52.3223 3.71 53.1923 3.5 54.0923 3.38C55.0523 3.26 55.9523 3.29 56.7923 3.47C57.1523 3.53 57.4823 4.01 57.7823 4.91C58.1423 5.75 58.3223 6.5 58.3223 7.15999C58.2623 15.44 58.1423 23.72 57.9623 32C57.8423 40.28 57.7223 48.56 57.6023 56.84C57.6023 58.88 57.6623 60.95 57.7823 63.05C57.9023 65.09 58.0523 67.13 58.2323 69.17C58.2923 70.97 57.9023 72.56 57.0623 73.94C56.2223 75.32 54.9323 76.28 53.1923 76.82C51.4523 77.36 49.9523 77.24 48.6923 76.46C47.4323 75.68 46.6523 74.39 46.3523 72.59C46.2323 71.69 46.1723 70.76 46.1723 69.8C46.1723 68.9 46.1723 68 46.1723 67.1C46.2923 62.42 46.4123 57.74 46.5323 53.06C46.7123 48.38 46.8323 43.67 46.8923 38.93C46.8923 37.97 46.8323 37.01 46.7123 36.05C46.5923 35.09 46.4723 34.13 46.3523 33.17C46.2323 33.17 45.9923 33.11 45.6323 32.99C44.6723 34.01 43.7123 35.06 42.7523 36.14C41.8523 37.16 40.9823 38.27 40.1423 39.47C38.8823 41.03 37.6523 42.65 36.4523 44.33C35.3123 45.95 34.1423 47.57 32.9423 49.19C31.0823 51.65 29.3123 52.91 27.6323 52.97C25.9523 52.97 24.1823 51.71 22.3223 49.19C20.8823 47.21 19.5323 45.14 18.2723 42.98C17.0123 40.76 15.7223 38.6 14.4023 36.5C14.1623 36.14 13.8923 35.78 13.5923 35.42C13.3523 35.06 12.9623 34.76 12.4223 34.52V48.56C12.4223 50.12 12.4523 51.71 12.5123 53.33C12.5723 54.95 12.6023 56.57 12.6023 58.19C12.6623 59.33 12.6923 60.47 12.6923 61.61C12.7523 62.69 12.7523 63.8 12.6923 64.94C12.6323 66.26 12.5723 67.55 12.5123 68.81C12.5123 70.07 12.3923 71.33 12.1523 72.59C11.9123 73.97 11.1923 75.05 9.99234 75.83C8.85234 76.61 7.59234 76.94 6.21234 76.82C4.59234 76.7 3.27234 76.19 2.25234 75.29C1.29234 74.39 0.812344 73.13 0.812344 71.51C0.812344 68.45 0.842344 65.33 0.902344 62.15C1.02234 58.97 1.11234 55.82 1.17234 52.7C1.17234 51.8 1.20234 50.9 1.26234 50C1.38234 49.04 1.41234 48.08 1.35234 47.12C1.17234 41.96 0.992344 36.8 0.812344 31.64C0.632344 26.48 0.452344 21.32 0.272344 16.16C0.212344 14.78 0.242344 13.43 0.362344 12.11C0.542344 10.73 0.662344 9.38 0.722344 8.06C0.782344 5.3 2.22234 3.68 5.04234 3.2C7.98234 2.66 10.1123 3.74 11.4323 6.44C12.8723 9.5 14.2823 12.56 15.6623 15.62C17.1023 18.68 18.6023 21.71 20.1623 24.71C21.1823 26.75 22.3223 28.76 23.5823 30.74C24.8423 32.66 26.0423 34.58 27.1823 36.5H28.4423ZM48.2423 60.62C48.3623 62.3 48.4523 64.04 48.5123 65.84C48.5723 67.58 48.7523 69.26 49.0523 70.88C49.2323 71.54 49.6523 72.26 50.3123 73.04C50.9723 73.88 51.6023 74.3 52.2023 74.3C52.8623 74.3 53.5223 73.94 54.1823 73.22C54.9023 72.56 55.4723 71.9 55.8923 71.24C56.1323 70.82 56.2223 70.31 56.1623 69.71C56.1023 69.11 56.0123 68.54 55.8923 68C54.9923 65.12 54.6323 62.24 54.8123 59.36C54.9923 56.42 55.1123 53.48 55.1723 50.54C55.4723 43.58 55.6823 36.62 55.8023 29.66C55.9223 22.64 56.0123 15.65 56.0723 8.69C56.0723 8.09 55.9523 7.43 55.7123 6.71C55.4723 5.93 55.0523 5.48 54.4523 5.36C53.8523 5.18 53.2223 5.35999 52.5623 5.89999C51.9623 6.38 51.5123 6.86 51.2123 7.34C47.5523 12.38 43.9223 17.45 40.3223 22.55C36.7823 27.59 33.2423 32.66 29.7023 37.76C28.1423 40.1 26.6723 40.1 25.2923 37.76C24.0923 35.66 22.8923 33.59 21.6923 31.55C20.5523 29.45 19.4423 27.35 18.3623 25.25C16.8623 22.43 15.3923 19.58 13.9523 16.7C12.5723 13.76 11.1023 10.88 9.54234 8.06C9.12234 7.22 8.52234 6.47 7.74234 5.81C7.02234 5.15 6.06234 5.03 4.86234 5.45C3.66234 5.87 3.00234 6.53 2.88234 7.43C2.76234 8.27 2.73234 9.17 2.79234 10.13C2.91234 14.21 3.03234 18.32 3.15234 22.46C3.27234 26.54 3.30234 30.62 3.24234 34.7C3.24234 40.58 3.12234 46.46 2.88234 52.34C2.70234 58.22 2.52234 64.1 2.34234 69.98C2.28234 71.3 2.58234 72.44 3.24234 73.4C3.96234 74.42 4.80234 74.99 5.76234 75.11C6.96234 75.17 8.04234 74.78 9.00234 73.94C10.0223 73.16 10.5623 72.11 10.6223 70.79C10.7423 70.13 10.7723 69.5 10.7123 68.9C10.6523 68.36 10.5923 67.79 10.5323 67.19C10.4123 64.73 10.2323 62.27 9.99234 59.81C9.81234 57.35 9.69234 54.89 9.63234 52.43C9.45234 49.07 9.30234 45.74 9.18234 42.44C9.12234 39.08 9.06234 35.75 9.00234 32.45C9.00234 31.91 9.09234 31.25 9.27234 30.47C9.51234 29.69 9.93234 29.21 10.5323 29.03C11.0723 28.85 11.5823 29 12.0623 29.48C12.6023 29.96 12.9923 30.44 13.2323 30.92C15.0923 33.68 16.8923 36.47 18.6323 39.29C20.3723 42.05 22.1723 44.84 24.0323 47.66C26.2523 51.02 28.5923 51.17 31.0523 48.11C33.2723 45.29 35.4323 42.5 37.5323 39.74C39.6923 36.98 41.8823 34.22 44.1023 31.46C44.7623 30.62 45.3923 29.93 45.9923 29.39C46.6523 28.79 47.2223 28.61 47.7023 28.85C48.1823 29.09 48.5123 29.6 48.6923 30.38C48.8123 30.8 48.8723 31.25 48.8723 31.73C48.9323 32.21 48.9623 32.69 48.9623 33.17C48.9623 34.97 48.9323 37.07 48.8723 39.47C48.8723 41.87 48.8423 44.3 48.7823 46.76C48.7223 49.22 48.6623 51.5 48.6023 53.6C48.5423 55.7 48.4823 57.41 48.4223 58.73C48.3623 59.99 48.3023 60.62 48.2423 60.62ZM87.5224 46.31C87.5224 44.45 87.0724 42.86 86.1724 41.54C85.3324 40.16 84.3424 38.84 83.2024 37.58C77.9824 32.06 72.7324 26.45 67.4524 20.75C66.8524 20.09 66.3124 19.37 65.8324 18.59C65.4124 17.75 65.0224 16.94 64.6624 16.16C63.8824 14.72 63.6124 13.4 63.8524 12.2C64.0924 11 64.7224 10.07 65.7424 9.41C66.7024 8.75 67.8124 8.57 69.0724 8.87C70.3324 9.11 71.4424 9.77 72.4024 10.85C74.5024 13.13 76.5424 15.44 78.5224 17.78C80.5624 20.12 82.6024 22.43 84.6424 24.71C85.6024 25.85 86.5924 26.96 87.6124 28.04C88.6924 29.06 89.7424 30.08 90.7624 31.1C92.3224 32.72 93.6124 32.54 94.6324 30.56C96.4924 27.2 98.3224 23.87 100.122 20.57C101.922 17.27 103.752 13.94 105.612 10.58C106.632 8.72 107.802 7.43 109.122 6.71C110.442 5.93 111.852 5.81 113.352 6.34999C114.552 6.71 115.392 7.28 115.872 8.06C116.412 8.84 116.532 9.86 116.232 11.12C116.052 11.6 115.872 12.11 115.692 12.65C115.572 13.13 115.362 13.61 115.062 14.09C112.782 18.17 110.442 22.25 108.042 26.33C105.642 30.35 103.332 34.46 101.112 38.66C100.332 40.22 99.6424 41.93 99.0424 43.79C98.4424 45.59 98.0824 47.39 97.9624 49.19C97.8424 52.73 97.8424 56.3 97.9624 59.9C98.1424 63.5 98.2924 67.07 98.4124 70.61C98.5324 72.83 98.0224 74.6 96.8824 75.92C95.8024 77.3 94.3024 77.96 92.3824 77.9C90.8824 77.78 89.7724 77.39 89.0524 76.73C88.3924 76.13 88.0324 75.05 87.9724 73.49C87.9124 71.39 87.8824 69.32 87.8824 67.28C87.9424 65.18 87.9724 63.08 87.9724 60.98C87.9124 60.98 87.8524 60.47 87.7924 59.45C87.7924 58.37 87.7624 57.05 87.7024 55.49C87.6424 53.87 87.5824 52.25 87.5224 50.63C87.5224 48.95 87.5224 47.51 87.5224 46.31ZM89.7724 58.91V68.36C89.7724 69.14 89.7724 69.89 89.7724 70.61C89.8324 71.39 89.9224 72.14 90.0424 72.86C90.1624 73.64 90.3724 74.45 90.6724 75.29C90.9724 76.13 91.6624 76.43 92.7424 76.19C93.2824 76.07 93.8224 75.65 94.3624 74.93C94.9024 74.27 95.3524 73.61 95.7124 72.95C96.0124 72.47 96.1324 71.93 96.0724 71.33C96.0724 70.79 96.0424 70.22 95.9824 69.62C95.9224 67.34 95.8024 65.09 95.6224 62.87C95.5024 60.59 95.4724 58.28 95.5324 55.94C95.6524 52.64 95.9224 49.37 96.3424 46.13C96.8224 42.89 97.9924 39.8 99.8524 36.86C101.472 34.28 103.032 31.67 104.532 29.03C106.032 26.39 107.532 23.75 109.032 21.11C109.872 19.61 110.712 18.11 111.552 16.61C112.392 15.11 113.172 13.58 113.892 12.02C114.072 11.54 114.162 10.91 114.162 10.13C114.162 9.35 113.922 8.78 113.442 8.41999C112.962 8 112.332 7.94 111.552 8.24C110.832 8.48 110.202 8.75 109.662 9.05C109.122 9.35 108.642 9.8 108.222 10.4C107.802 11 107.442 11.57 107.142 12.11C105.282 15.41 103.452 18.74 101.652 22.1C99.8524 25.4 97.9924 28.73 96.0724 32.09C95.1124 33.83 94.0624 34.73 92.9224 34.79C91.8424 34.85 90.6424 34.16 89.3224 32.72C86.4424 29.36 83.5624 26.03 80.6824 22.73C77.8624 19.43 75.0124 16.16 72.1324 12.92C71.5924 12.26 70.9324 11.57 70.1524 10.85C69.3724 10.13 68.5924 10.07 67.8124 10.67C66.7324 11.45 66.2224 12.53 66.2824 13.91C66.4024 15.29 67.0624 16.67 68.2624 18.05C70.9024 20.99 73.5124 23.96 76.0924 26.96C78.6724 29.9 81.3424 32.78 84.1024 35.6C86.0824 37.64 87.5824 39.8 88.6024 42.08C89.6824 44.3 90.1024 46.82 89.8624 49.64C89.8024 51.14 89.7724 52.67 89.7724 54.23C89.7724 55.79 89.7724 57.35 89.7724 58.91ZM143.693 4.01C145.613 4.13 147.683 4.55 149.903 5.27C152.183 5.93 154.433 6.95 156.653 8.33C158.693 9.59 160.373 11.18 161.693 13.1C163.013 15.02 164.063 17.03 164.843 19.13C165.263 20.15 165.323 21.26 165.023 22.46C164.783 23.6 164.093 24.47 162.953 25.07C161.933 25.67 160.883 25.82 159.803 25.52C158.783 25.22 157.943 24.47 157.283 23.27C156.143 21.11 154.973 19.28 153.773 17.78C152.573 16.22 151.043 15.05 149.183 14.27C147.323 13.49 144.833 13.22 141.713 13.46C140.333 13.52 138.923 14 137.483 14.9C136.103 15.74 134.903 16.79 133.883 18.05C132.863 19.31 132.233 20.66 131.993 22.1C131.873 22.64 131.873 23.24 131.993 23.9C132.173 24.5 132.383 25.1 132.623 25.7C133.643 27.92 135.053 29.81 136.853 31.37C138.713 32.87 140.753 34.19 142.973 35.33C144.773 36.23 146.573 37.1 148.373 37.94C150.233 38.72 152.063 39.56 153.863 40.46C157.583 42.44 160.553 44.93 162.773 47.93C165.053 50.87 166.283 54.56 166.463 59C166.583 61.76 165.923 64.4 164.483 66.92C163.043 69.38 161.123 71.45 158.723 73.13C156.383 74.81 153.803 75.77 150.983 76.01C146.783 76.43 142.853 76.43 139.193 76.01C135.533 75.65 132.083 74.39 128.843 72.23C128.243 71.87 127.343 71.15 126.143 70.07C125.003 68.99 123.863 67.7 122.723 66.2C121.643 64.7 120.863 63.11 120.383 61.43C119.963 59.69 120.143 58.01 120.923 56.39C121.703 54.95 122.693 54.08 123.893 53.78C125.093 53.42 126.203 53.84 127.223 55.04C128.063 56 128.993 57.11 130.013 58.37C131.093 59.63 132.083 60.68 132.983 61.52C135.443 63.92 138.173 65.42 141.173 66.02C144.173 66.56 147.263 66.71 150.443 66.47C151.823 66.35 152.963 65.81 153.863 64.85C154.763 63.83 155.303 62.66 155.483 61.34C155.963 58.88 155.663 56.69 154.583 54.77C153.563 52.85 151.943 51.29 149.723 50.09C146.723 48.35 143.693 46.64 140.633 44.96C137.633 43.22 134.693 41.39 131.813 39.47C128.933 37.55 126.713 35.03 125.153 31.91C123.593 28.73 122.603 25.46 122.183 22.1C121.883 19.16 122.333 16.61 123.533 14.45C124.733 12.23 126.383 10.28 128.483 8.6C130.343 7.1 132.443 5.92999 134.783 5.08999C137.183 4.19 140.153 3.83 143.693 4.01ZM145.673 74.48H147.023C150.563 74.24 153.713 73.52 156.473 72.32C159.293 71.12 161.513 68.84 163.133 65.48C164.033 63.62 164.453 61.55 164.393 59.27C164.393 56.93 163.913 54.65 162.953 52.43C162.053 50.15 160.673 48.17 158.813 46.49C155.753 43.67 152.213 41.51 148.193 40.01C145.073 38.81 142.133 37.31 139.373 35.51C136.673 33.65 134.243 31.43 132.083 28.85C130.523 26.87 129.743 24.83 129.743 22.73C129.803 20.57 130.493 18.59 131.813 16.79C133.133 14.99 134.873 13.64 137.033 12.74C139.913 11.54 142.463 11 144.683 11.12C146.903 11.24 148.793 11.75 150.353 12.65C151.973 13.49 153.293 14.48 154.313 15.62C155.393 16.76 156.173 17.72 156.653 18.5C157.133 19.22 157.583 19.94 158.003 20.66C158.423 21.38 158.903 22.07 159.443 22.73C159.623 22.97 159.923 23.15 160.343 23.27C160.823 23.39 161.183 23.42 161.423 23.36C161.723 23.18 162.023 22.91 162.323 22.55C162.623 22.13 162.773 21.74 162.773 21.38C162.833 20.96 162.773 20.54 162.593 20.12C162.413 19.64 162.263 19.19 162.143 18.77C161.423 15.95 159.893 13.61 157.553 11.75C155.273 9.89 152.573 8.51 149.453 7.61C146.393 6.71 143.303 6.35 140.183 6.53C137.123 6.71 134.423 7.49 132.083 8.87C130.163 10.01 128.513 11.54 127.133 13.46C125.813 15.38 124.913 17.48 124.433 19.76C124.013 22.04 124.193 24.35 124.973 26.69C126.053 29.99 127.733 32.72 130.013 34.88C132.353 36.98 134.903 38.9 137.663 40.64C139.943 42.08 142.283 43.43 144.683 44.69C147.143 45.89 149.573 47.15 151.973 48.47C154.433 49.79 156.143 51.53 157.103 53.69C158.123 55.79 158.573 58.19 158.453 60.89C158.333 62.75 157.613 64.49 156.293 66.11C154.973 67.67 153.383 68.54 151.523 68.72C147.263 69.08 143.243 68.72 139.463 67.64C135.683 66.56 132.383 64.19 129.563 60.53C128.723 59.33 127.763 58.28 126.683 57.38C126.443 57.08 126.053 56.81 125.513 56.57C124.973 56.27 124.493 56.18 124.073 56.3C123.833 56.48 123.533 56.81 123.173 57.29C122.813 57.77 122.633 58.46 122.633 59.36C122.633 60.32 122.783 61.22 123.083 62.06C123.443 62.84 123.863 63.65 124.343 64.49C125.963 67.01 127.913 68.93 130.193 70.25C132.533 71.63 135.023 72.62 137.663 73.22C140.363 73.82 143.033 74.24 145.673 74.48ZM214.206 70.16C214.206 70.52 214.176 70.88 214.116 71.24C214.056 71.6 213.936 71.96 213.756 72.32C213.216 73.34 212.496 74.12 211.596 74.66C210.756 75.2 209.736 75.38 208.536 75.2C207.336 75.02 206.496 74.51 206.016 73.67C205.536 72.83 205.296 71.84 205.296 70.7V51.26C205.296 49.88 205.236 48.89 205.116 48.29C204.996 47.69 204.636 47.36 204.036 47.3C203.496 47.18 202.536 47.15 201.156 47.21C198.576 47.27 195.996 47.36 193.416 47.48C190.836 47.6 188.256 47.72 185.676 47.84C182.976 48.02 181.626 49.43 181.626 52.07C181.626 54.47 181.626 56.9 181.626 59.36C181.626 61.76 181.596 64.19 181.536 66.65C181.476 68.15 181.266 69.56 180.906 70.88C180.606 72.26 179.856 73.55 178.656 74.75C177.396 75.95 176.106 76.37 174.786 76.01C173.526 75.71 172.656 74.72 172.176 73.04C171.936 71.9 171.756 70.76 171.636 69.62C171.516 68.54 171.456 67.46 171.456 66.38C171.516 62.3 171.606 58.28 171.726 54.32C171.906 50.3 171.996 46.28 171.996 42.26C171.996 37.88 171.936 33.56 171.816 29.3C171.756 24.98 171.666 20.66 171.546 16.34C171.486 14.6 171.936 12.95 172.896 11.39C173.916 9.77 175.146 8.81 176.586 8.51C178.206 8.15 179.526 8.36 180.546 9.14C181.626 9.86 182.136 11.06 182.076 12.74C182.016 16.4 181.926 20.09 181.806 23.81C181.746 27.53 181.656 31.25 181.536 34.97C181.536 36.41 181.596 37.43 181.716 38.03C181.836 38.63 182.196 38.99 182.796 39.11C183.456 39.23 184.536 39.29 186.036 39.29C188.796 39.29 191.526 39.29 194.226 39.29C196.926 39.23 199.626 39.23 202.326 39.29C203.586 39.29 204.486 39.02 205.026 38.48C205.566 37.94 205.866 37.07 205.926 35.87C205.986 32.33 206.046 28.85 206.106 25.43C206.166 21.95 206.226 18.47 206.286 14.99C206.346 14.39 206.406 13.76 206.466 13.1C206.586 12.44 206.736 11.84 206.916 11.3C207.816 9.2 209.436 8.39 211.776 8.87C213.876 9.35 214.926 10.64 214.926 12.74V26.33C214.926 26.33 214.926 27.2 214.926 28.94C214.926 30.62 214.896 32.87 214.836 35.69C214.836 38.45 214.806 41.51 214.746 44.87C214.686 48.23 214.626 51.56 214.566 54.86C214.566 58.16 214.506 61.16 214.386 63.86C214.326 66.56 214.266 68.66 214.206 70.16ZM208.176 25.79C208.176 27.53 208.176 29.27 208.176 31.01C208.236 32.75 208.236 34.52 208.176 36.32C208.116 38 207.786 39.2 207.186 39.92C206.646 40.58 205.506 40.97 203.766 41.09C200.406 41.33 197.016 41.54 193.596 41.72C190.176 41.84 186.756 41.96 183.336 42.08C181.356 42.14 180.066 41.9 179.466 41.36C178.926 40.82 178.686 39.56 178.746 37.58C178.806 33.68 178.896 29.78 179.016 25.88C179.196 21.98 179.316 18.05 179.376 14.09C179.376 13.61 179.316 13.04 179.196 12.38C179.076 11.66 178.776 11.18 178.296 10.94C177.696 10.64 177.036 10.7 176.316 11.12C175.596 11.54 175.086 11.96 174.786 12.38C174.366 13.22 174.066 14.15 173.886 15.17C173.706 16.13 173.586 17.09 173.526 18.05C173.466 19.19 173.466 20.33 173.526 21.47C173.646 22.55 173.706 23.63 173.706 24.71C173.766 27.83 173.766 30.95 173.706 34.07C173.706 37.19 173.706 40.31 173.706 43.43C173.706 43.85 173.736 44.27 173.796 44.69C173.916 45.11 173.976 45.53 173.976 45.95C173.976 47.27 173.976 48.59 173.976 49.91C174.036 51.23 174.066 52.58 174.066 53.96C174.006 56.78 173.946 59.63 173.886 62.51C173.826 65.33 173.826 68.15 173.886 70.97C173.886 71.45 174.036 72.02 174.336 72.68C174.636 73.34 175.056 73.73 175.596 73.85C176.196 73.97 176.766 73.76 177.306 73.22C177.846 72.68 178.236 72.2 178.476 71.78C178.776 71.24 178.956 70.64 179.016 69.98C179.136 69.32 179.196 68.69 179.196 68.09C179.196 65.39 179.166 62.69 179.106 59.99C179.106 57.29 179.136 54.59 179.196 51.89C179.316 49.67 179.796 48.17 180.636 47.39C181.476 46.55 182.976 46.07 185.136 45.95C187.776 45.77 190.386 45.65 192.966 45.59C195.546 45.47 198.126 45.38 200.706 45.32C203.046 45.26 204.726 45.38 205.746 45.68C206.766 45.98 207.366 46.67 207.546 47.75C207.726 48.77 207.726 50.48 207.546 52.88C207.306 55.82 207.186 58.79 207.186 61.79C207.186 64.73 207.216 67.64 207.276 70.52C207.276 71.06 207.516 71.69 207.996 72.41C208.476 73.13 208.926 73.55 209.346 73.67C210.306 73.79 210.966 73.52 211.326 72.86C211.686 72.2 211.866 71.42 211.866 70.52C211.986 65.54 212.076 60.56 212.136 55.58C212.256 50.54 212.376 45.5 212.496 40.46C212.556 36.92 212.616 33.38 212.676 29.84C212.796 26.24 212.886 22.7 212.946 19.22C212.946 18.2 212.946 17.18 212.946 16.16C213.006 15.14 212.946 14.15 212.766 13.19C212.706 12.71 212.466 12.26 212.046 11.84C211.686 11.36 211.296 11.06 210.876 10.94C210.576 10.82 210.186 10.97 209.706 11.39C209.226 11.75 208.896 12.14 208.716 12.56C208.476 12.98 208.326 13.49 208.266 14.09C208.206 14.69 208.176 15.23 208.176 15.71C208.116 17.39 208.086 19.07 208.086 20.75C208.146 22.37 208.176 24.05 208.176 25.79ZM223.728 25.52C224.808 21.68 226.518 18.47 228.858 15.89C231.198 13.31 233.898 11.36 236.958 10.04C240.018 8.72 243.198 8 246.498 7.88C249.798 7.7 252.978 8.12 256.038 9.14C259.098 10.1 261.768 11.63 264.048 13.73C266.628 16.13 268.488 18.89 269.628 22.01C270.828 25.07 271.488 28.31 271.608 31.73C271.968 38.57 271.218 45.08 269.358 51.26C267.498 57.38 264.228 63.05 259.548 68.27C258.108 69.89 256.278 71.27 254.058 72.41C251.838 73.61 249.438 74.54 246.858 75.2C244.278 75.92 241.728 76.28 239.208 76.28C236.688 76.34 234.408 76.01 232.368 75.29C230.268 74.51 228.288 73.19 226.428 71.33C224.628 69.47 223.158 67.31 222.018 64.85C220.938 62.39 220.368 59.93 220.308 57.47C220.308 56.99 220.338 55.85 220.398 54.05C220.458 52.25 220.578 50.09 220.758 47.57C220.938 44.99 221.178 42.32 221.478 39.56C221.778 36.74 222.108 34.1 222.468 31.64C222.828 29.18 223.248 27.14 223.728 25.52ZM222.198 57.29C222.318 60.53 223.218 63.47 224.898 66.11C226.638 68.69 228.858 70.73 231.558 72.23C234.318 73.73 237.318 74.39 240.558 74.21C245.838 73.97 250.308 72.53 253.968 69.89C257.688 67.25 260.808 63.74 263.328 59.36C265.728 55.22 267.408 50.9 268.368 46.4C269.388 41.9 269.838 37.31 269.718 32.63C269.718 27.59 268.398 23.18 265.758 19.4C263.178 15.56 259.728 12.89 255.408 11.39C251.868 10.19 248.328 9.65 244.788 9.77C241.308 9.89 237.978 11.09 234.798 13.37C232.098 15.29 229.848 17.57 228.048 20.21C226.308 22.85 225.138 25.82 224.538 29.12C224.298 30.62 224.058 32.51 223.818 34.79C223.578 37.01 223.368 39.35 223.188 41.81C223.008 44.27 222.828 46.61 222.648 48.83C222.468 51.05 222.348 52.94 222.288 54.5C222.228 56 222.198 56.93 222.198 57.29ZM226.968 45.41C227.088 42.29 227.478 39.11 228.138 35.87C228.798 32.57 229.788 29.33 231.108 26.15C232.668 22.25 235.098 19.28 238.398 17.24C241.698 15.14 245.328 14.33 249.288 14.81C251.628 15.05 253.818 15.92 255.858 17.42C257.958 18.92 259.728 20.81 261.168 23.09C262.608 25.31 263.478 27.71 263.778 30.29C264.438 35.69 264.138 40.91 262.878 45.95C261.678 50.99 259.578 55.7 256.578 60.08C255.258 62.06 253.698 63.83 251.898 65.39C250.098 66.95 248.058 68.09 245.778 68.81C243.558 69.53 241.038 69.65 238.218 69.17C235.338 68.57 232.908 67.22 230.928 65.12C229.008 62.96 227.898 60.35 227.598 57.29C227.478 55.43 227.358 53.54 227.238 51.62C227.178 49.7 227.088 47.63 226.968 45.41ZM232.908 62.96C233.688 64.04 234.768 64.94 236.148 65.66C237.528 66.38 238.968 66.83 240.468 67.01C241.968 67.13 243.288 66.89 244.428 66.29C246.768 64.97 249.018 63.53 251.178 61.97C253.338 60.35 255.048 58.31 256.308 55.85C258.468 51.59 260.028 47.18 260.988 42.62C261.948 38 261.948 33.29 260.988 28.49C260.328 24.95 258.768 22.19 256.308 20.21C253.848 18.17 250.848 17.09 247.308 16.97C246.048 16.91 244.608 17.18 242.988 17.78C241.428 18.38 239.898 19.22 238.398 20.3C236.898 21.38 235.608 22.61 234.528 23.99C233.508 25.31 232.908 26.69 232.728 28.13C232.548 29.51 232.248 31.34 231.828 33.62C231.408 35.9 231.018 38.39 230.658 41.09C230.298 43.79 230.058 46.52 229.938 49.28C229.878 52.04 230.058 54.62 230.478 57.02C230.898 59.36 231.708 61.34 232.908 62.96ZM281.253 69.44C281.253 66.62 281.223 63.8 281.163 60.98C281.163 58.1 281.193 55.25 281.253 52.43C281.253 51.35 281.073 50.48 280.713 49.82C280.353 49.1 279.483 48.71 278.103 48.65C276.963 48.59 276.093 48.2 275.493 47.48C274.893 46.7 274.533 45.8 274.413 44.78C274.353 43.64 274.563 42.68 275.043 41.9C275.583 41.12 276.363 40.64 277.383 40.46C278.823 40.16 279.723 39.59 280.083 38.75C280.443 37.91 280.623 36.89 280.623 35.69C280.563 30.89 280.533 26.12 280.533 21.38C280.593 16.64 280.623 11.9 280.623 7.15999C280.623 5.12 280.893 3.65 281.433 2.75C282.033 1.79 282.933 1.22 284.133 1.04C285.393 0.859997 286.563 1.19 287.643 2.03C288.783 2.87 289.623 4.1 290.163 5.72C290.463 6.62 290.883 7.22 291.423 7.52C291.963 7.76 292.653 7.85 293.493 7.79C295.893 7.79 298.263 7.79 300.603 7.79C303.003 7.79 305.373 7.94 307.713 8.24C309.993 8.54 311.883 9.41 313.383 10.85C314.943 12.29 316.143 14.12 316.983 16.34C318.303 19.64 318.933 22.97 318.873 26.33C318.813 29.63 318.243 32.96 317.163 36.32C316.143 39.44 314.193 42.08 311.313 44.24C308.493 46.34 305.313 47.51 301.773 47.75C300.573 47.81 299.343 47.84 298.083 47.84C296.823 47.78 295.593 47.81 294.393 47.93C292.773 47.99 291.693 48.32 291.153 48.92C290.613 49.46 290.343 50.54 290.343 52.16C290.403 55.4 290.433 58.67 290.433 61.97C290.493 65.27 290.553 68.54 290.613 71.78C290.613 73.46 290.253 74.81 289.533 75.83C288.813 76.91 287.763 77.48 286.383 77.54C284.883 77.6 283.653 77.09 282.693 76.01C281.793 74.99 281.313 73.58 281.253 71.78V69.44ZM283.053 61.52C283.053 61.52 283.053 61.94 283.053 62.78C283.053 63.56 283.023 64.58 282.963 65.84C282.963 67.04 282.963 68.27 282.963 69.53C282.963 70.85 282.963 71.99 282.963 72.95C282.963 73.73 283.143 74.39 283.503 74.93C283.923 75.53 284.523 75.77 285.303 75.65C285.903 75.53 286.443 75.44 286.923 75.38C287.463 75.32 288.003 74.84 288.543 73.94C288.723 73.64 288.753 73.16 288.633 72.5C288.573 71.84 288.543 71.3 288.543 70.88C288.483 67.52 288.393 64.13 288.273 60.71C288.213 57.29 288.153 53.9 288.093 50.54C288.093 48.86 288.453 47.69 289.173 47.03C289.953 46.37 291.183 46.01 292.863 45.95C296.763 45.83 300.693 45.65 304.653 45.41C307.893 45.11 310.473 43.64 312.393 41C315.573 36.74 317.193 32.24 317.253 27.5C317.373 22.76 316.023 18.29 313.203 14.09C312.663 13.25 311.883 12.5 310.863 11.84C309.903 11.12 308.913 10.7 307.893 10.58C305.673 10.28 303.393 10.07 301.053 9.95C298.713 9.83 296.373 9.8 294.033 9.86C292.413 9.86 291.213 9.83 290.433 9.77C289.713 9.71 289.173 9.38 288.813 8.78C288.453 8.12 287.943 7.04 287.283 5.54C287.103 5 286.743 4.43 286.203 3.82999C285.663 3.23 285.063 2.99 284.403 3.11C283.803 3.17 283.353 3.56 283.053 4.28C282.813 5 282.663 5.63 282.603 6.17C282.483 7.67 282.423 9.22999 282.423 10.85C282.483 12.41 282.483 14 282.423 15.62C282.363 19.28 282.303 22.97 282.243 26.69C282.243 30.35 282.213 34.01 282.153 37.67C282.153 40.43 280.743 42.02 277.923 42.44C277.503 42.5 277.023 42.77 276.483 43.25C275.943 43.67 275.673 44.15 275.673 44.69C275.733 45.23 275.973 45.77 276.393 46.31C276.873 46.79 277.983 47 279.723 46.94C280.983 46.88 281.853 47.21 282.333 47.93C282.813 48.65 283.053 49.58 283.053 50.72V61.52ZM297.093 13.91C297.933 13.91 298.773 13.91 299.613 13.91C300.513 13.85 301.353 13.85 302.133 13.91C305.193 13.97 307.713 14.93 309.693 16.79C311.673 18.65 312.723 21.11 312.843 24.17C312.903 25.25 312.873 26.33 312.753 27.41C312.693 28.49 312.603 29.6 312.483 30.74C312.063 34.22 311.163 36.74 309.783 38.3C308.463 39.86 306.033 40.91 302.493 41.45C300.453 41.81 298.383 41.99 296.283 41.99C294.183 41.93 292.083 41.96 289.983 42.08C288.063 42.08 287.103 41.18 287.103 39.38C287.103 35.84 287.103 32.3 287.103 28.76C287.103 25.16 287.163 21.59 287.283 18.05C287.403 16.37 287.823 15.29 288.543 14.81C289.263 14.27 290.463 13.97 292.143 13.91H297.093ZM289.083 28.4V36.5C289.143 37.4 289.263 38.27 289.443 39.11C289.683 39.89 290.463 40.25 291.783 40.19C293.523 40.07 295.263 39.98 297.003 39.92C298.803 39.8 300.543 39.62 302.223 39.38C304.083 39.08 305.643 38.42 306.903 37.4C308.163 36.32 308.973 34.85 309.333 32.99C309.633 31.31 309.843 29.63 309.963 27.95C310.083 26.27 310.113 24.62 310.053 23C309.873 19.16 307.893 16.97 304.113 16.43C302.193 16.13 300.213 15.95 298.173 15.89C296.133 15.83 294.123 15.77 292.143 15.71C290.643 15.71 289.833 16.52 289.713 18.14C289.653 19.88 289.563 21.62 289.443 23.36C289.323 25.1 289.203 26.78 289.083 28.4Z" fill="black"/>
</svg>
